<svg width="28" height="32" viewBox="0 0 28 32" fill="none" xmlns="http://www.w3.org/2000/svg">
<g id="&#240;&#159;&#166;&#134; icon &#34;calendar&#34;">
<g id="Group">
<path id="Vector" d="M21.106 3.77277V1.40913C21.106 0.787918 20.5908 0.272766 19.9696 0.272766C19.3484 0.272766 18.8333 0.787918 18.8333 1.40913V3.68186H8.98483V1.40913C8.98483 0.787918 8.46967 0.272766 7.84846 0.272766C7.22725 0.272766 6.7121 0.787918 6.7121 1.40913V3.77277C2.62119 4.15155 0.636341 6.59095 0.333311 10.2122C0.303008 10.6516 0.666644 11.0152 1.09089 11.0152H26.7272C27.1666 11.0152 27.5302 10.6364 27.4848 10.2122C27.1817 6.59095 25.1969 4.15155 21.106 3.77277Z" fill="#FF5C00"/>
<path id="Vector_2" d="M26.03 13.2877H1.78761C0.954279 13.2877 0.272461 13.9694 0.272461 14.8027V24.1361C0.272461 28.6815 2.54519 31.7118 7.84822 31.7118H19.9694C25.2725 31.7118 27.5452 28.6815 27.5452 24.1361V14.8027C27.5452 13.9694 26.8634 13.2877 26.03 13.2877ZM9.68155 25.9694C9.60579 26.03 9.53004 26.1058 9.45428 26.1512C9.36337 26.2118 9.27246 26.2573 9.18155 26.2876C9.09064 26.3331 8.99973 26.3634 8.90882 26.3785C8.80276 26.3937 8.71185 26.4088 8.60579 26.4088C8.40882 26.4088 8.21185 26.3634 8.03004 26.2876C7.83307 26.2118 7.68155 26.1058 7.53004 25.9694C7.25731 25.6815 7.09064 25.2876 7.09064 24.8937C7.09064 24.4997 7.25731 24.1058 7.53004 23.8179C7.68155 23.6815 7.83307 23.5755 8.03004 23.4997C8.30276 23.3785 8.60579 23.3482 8.90882 23.4088C8.99973 23.424 9.09064 23.4543 9.18155 23.4997C9.27246 23.53 9.36337 23.5755 9.45428 23.6361C9.53004 23.6967 9.60579 23.7573 9.68155 23.8179C9.95428 24.1058 10.1209 24.4997 10.1209 24.8937C10.1209 25.2876 9.95428 25.6815 9.68155 25.9694ZM9.68155 20.6664C9.39367 20.9391 8.99973 21.1058 8.60579 21.1058C8.21185 21.1058 7.81792 20.9391 7.53004 20.6664C7.25731 20.3785 7.09064 19.9846 7.09064 19.5906C7.09064 19.1967 7.25731 18.8027 7.53004 18.5149C7.95428 18.0906 8.62095 17.9543 9.18155 18.1967C9.37852 18.2724 9.54519 18.3785 9.68155 18.5149C9.95428 18.8027 10.1209 19.1967 10.1209 19.5906C10.1209 19.9846 9.95428 20.3785 9.68155 20.6664ZM14.9846 25.9694C14.6967 26.2421 14.3028 26.4088 13.9088 26.4088C13.5149 26.4088 13.1209 26.2421 12.8331 25.9694C12.5603 25.6815 12.3937 25.2876 12.3937 24.8937C12.3937 24.4997 12.5603 24.1058 12.8331 23.8179C13.3937 23.2573 14.424 23.2573 14.9846 23.8179C15.2573 24.1058 15.424 24.4997 15.424 24.8937C15.424 25.2876 15.2573 25.6815 14.9846 25.9694ZM14.9846 20.6664C14.9088 20.727 14.8331 20.7876 14.7573 20.8482C14.6664 20.9088 14.5755 20.9543 14.4846 20.9846C14.3937 21.03 14.3028 21.0603 14.2119 21.0755C14.1058 21.0906 14.0149 21.1058 13.9088 21.1058C13.5149 21.1058 13.1209 20.9391 12.8331 20.6664C12.5603 20.3785 12.3937 19.9846 12.3937 19.5906C12.3937 19.1967 12.5603 18.8027 12.8331 18.5149C12.9694 18.3785 13.1361 18.2724 13.3331 18.1967C13.8937 17.9543 14.5603 18.0906 14.9846 18.5149C15.2573 18.8027 15.424 19.1967 15.424 19.5906C15.424 19.9846 15.2573 20.3785 14.9846 20.6664ZM20.2876 25.9694C19.9997 26.2421 19.6058 26.4088 19.2119 26.4088C18.8179 26.4088 18.424 26.2421 18.1361 25.9694C17.8634 25.6815 17.6967 25.2876 17.6967 24.8937C17.6967 24.4997 17.8634 24.1058 18.1361 23.8179C18.6967 23.2573 19.727 23.2573 20.2876 23.8179C20.5603 24.1058 20.727 24.4997 20.727 24.8937C20.727 25.2876 20.5603 25.6815 20.2876 25.9694ZM20.2876 20.6664C20.2119 20.727 20.1361 20.7876 20.0603 20.8482C19.9694 20.9088 19.8785 20.9543 19.7876 20.9846C19.6967 21.03 19.6058 21.0603 19.5149 21.0755C19.4088 21.0906 19.3028 21.1058 19.2119 21.1058C18.8179 21.1058 18.424 20.9391 18.1361 20.6664C17.8634 20.3785 17.6967 19.9846 17.6967 19.5906C17.6967 19.1967 17.8634 18.8027 18.1361 18.5149C18.2876 18.3785 18.4391 18.2724 18.6361 18.1967C18.9088 18.0755 19.2119 18.0452 19.5149 18.1058C19.6058 18.1209 19.6967 18.1512 19.7876 18.1967C19.8785 18.227 19.9694 18.2724 20.0603 18.3331L20.2876 18.5149C20.5603 18.8027 20.727 19.1967 20.727 19.5906C20.727 19.9846 20.5603 20.3785 20.2876 20.6664Z" fill="#FF5C00"/>
</g>
</g>
</svg>
