<svg width="33" height="32" viewBox="0 0 33 32" fill="none" xmlns="http://www.w3.org/2000/svg">
<g id="&#240;&#159;&#166;&#134; icon &#34;buildings&#34;">
<g id="Group">
<path id="Vector" d="M5.37408 9.74747C2.75274 9.74747 0.636719 11.8635 0.636719 14.4848V27.1178C0.636719 29.7391 2.75274 31.8552 5.37408 31.8552H7.74276C9.4798 31.8552 10.901 30.434 10.901 28.6969V12.9057C10.901 11.1687 9.4798 9.74747 7.74276 9.74747H5.37408ZM6.9532 23.9596C6.9532 24.607 6.4163 25.1439 5.76886 25.1439C5.12142 25.1439 4.58452 24.607 4.58452 23.9596V17.6431C4.58452 16.9956 5.12142 16.4587 5.76886 16.4587C6.4163 16.4587 6.9532 16.9956 6.9532 17.6431V23.9596Z" fill="#FF5C00"/>
<path id="Vector_2" d="M27.4816 0.272766H18.0069C15.3856 0.272766 13.2695 2.38879 13.2695 5.01013V27.1178C13.2695 29.7392 15.3856 31.8552 18.0069 31.8552H18.7965C19.2386 31.8552 19.586 31.5078 19.586 31.0656V25.5387C19.586 24.6702 20.2966 23.9596 21.1651 23.9596H24.3234C25.1919 23.9596 25.9025 24.6702 25.9025 25.5387V31.0656C25.9025 31.5078 26.2499 31.8552 26.6921 31.8552H27.4816C30.103 31.8552 32.219 29.7392 32.219 27.1178V5.01013C32.219 2.38879 30.103 0.272766 27.4816 0.272766ZM20.7704 17.6431C20.7704 18.2905 20.2335 18.8274 19.586 18.8274C18.9386 18.8274 18.4017 18.2905 18.4017 17.6431V9.74749C18.4017 9.10005 18.9386 8.56315 19.586 8.56315C20.2335 8.56315 20.7704 9.10005 20.7704 9.74749V17.6431ZM27.0868 17.6431C27.0868 18.2905 26.5499 18.8274 25.9025 18.8274C25.2551 18.8274 24.7182 18.2905 24.7182 17.6431V9.74749C24.7182 9.10005 25.2551 8.56315 25.9025 8.56315C26.5499 8.56315 27.0868 9.10005 27.0868 9.74749V17.6431Z" fill="#FF5C00"/>
</g>
</g>
</svg>
